#N canvas 789 252 470 367 12;
#X obj 139 174 osc~ 440;
#X obj 138 311 dac~;
#X floatatom 137 108 5 0 0 0 - - -;
#X obj 139 260 *~ 0;
#X msg 182 219 0;
#X msg 241 217 1;
#X text 187 312 speaker;
#X connect 0 0 3 0;
#X connect 2 0 0 0;
#X connect 3 0 1 0;
#X connect 3 0 1 1;
#X connect 4 0 3 1;
#X connect 5 0 3 1;
