#N canvas 676 30 681 686 12;
#X msg 18 11 440 0.6;
#X msg 86 13 330 0.3;
#X msg 155 13 1000 0.8;
#X obj 20 48 unpack f f;
#X floatatom 24 87 5 0 0 0 - - -;
#X floatatom 85 86 5 0 0 0 - - -;
#X obj 23 118 osc~;
#X obj 22 153 *~;
#X obj 22 193 dac~;
#X text 8 226 Using lists with pitches and dynamics;
#X obj 244 44 osc~ 500;
#X obj 246 106 *~;
#X obj 266 80 tgl 15 0 empty empty empty 17 7 0 10 -262144 -1 -1 0
1;
#X obj 247 145 dac~;
#X text 220 176 On/off switch;
#X msg 394 20 a1 440;
#X msg 458 20 c2 524;
#X msg 524 20 e2 660;
#X obj 393 70 route a1 c2 e2;
#X floatatom 393 108 5 0 0 0 - - -;
#X obj 393 139 osc~ 500;
#X obj 393 188 *~;
#X obj 410 166 tgl 15 0 empty empty empty 17 7 0 10 -262144 -1 -1 0
1;
#X obj 391 231 dac~;
#X text 460 107 Pitches with names;
#X obj 24 307 f;
#X obj 25 334 + 1;
#X floatatom 25 360 5 0 0 0 - - -;
#X obj 26 385 route 1 2 3 4 5 6;
#X obj 24 277 bng 15 250 50 0 empty empty empty 17 7 0 10 -262144 -1
-1;
#X msg 60 274 0;
#X obj 7 420 print;
#X msg 51 422 440;
#X msg 87 421 494;
#X msg 126 422 554;
#X msg 162 423 587;
#X msg 200 424 660;
#X msg 240 424 662;
#X floatatom 52 457 5 0 0 0 - - -;
#X obj 50 491 osc~;
#X obj 49 535 *~;
#X obj 52 573 dac~;
#X obj 71 516 tgl 15 0 empty empty empty 17 7 0 10 -262144 -1 -1 0
1;
#X text 11 599 A simple sequence;
#X msg 402 318 9;
#X obj 392 351 f;
#X obj 392 384 + 1;
#X obj 392 419 spigot;
#X obj 391 454 t b f;
#X obj 357 267 bng 15 250 50 0 empty empty empty 17 7 0 10 -262144
-1 -1;
#X obj 341 296 bng 15 250 50 0 empty empty empty 17 7 0 10 -262144
-1 -1;
#X obj 438 392 tgl 15 0 empty empty empty 17 7 0 10 -262144 -1 -1 0
1;
#X msg 470 349 1;
#X msg 516 349 0;
#X floatatom 421 486 5 0 0 0 - - -;
#X obj 422 517 sel 100;
#X obj 494 520 print;
#X obj 422 553 bng 15 250 50 0 empty empty empty 17 7 0 10 -262144
-1 -1;
#X text 382 579 A limited counter;
#X connect 0 0 3 0;
#X connect 1 0 3 0;
#X connect 2 0 3 0;
#X connect 3 0 4 0;
#X connect 3 1 5 0;
#X connect 4 0 6 0;
#X connect 5 0 7 1;
#X connect 6 0 7 0;
#X connect 7 0 8 0;
#X connect 7 0 8 1;
#X connect 10 0 11 0;
#X connect 11 0 13 0;
#X connect 11 0 13 1;
#X connect 12 0 11 1;
#X connect 15 0 18 0;
#X connect 16 0 18 0;
#X connect 17 0 18 0;
#X connect 18 0 19 0;
#X connect 18 1 19 0;
#X connect 18 2 19 0;
#X connect 18 3 19 0;
#X connect 19 0 20 0;
#X connect 20 0 21 0;
#X connect 21 0 23 0;
#X connect 21 0 23 1;
#X connect 22 0 21 1;
#X connect 25 0 26 0;
#X connect 26 0 27 0;
#X connect 26 0 25 1;
#X connect 27 0 28 0;
#X connect 28 0 31 0;
#X connect 28 1 32 0;
#X connect 28 2 33 0;
#X connect 28 3 34 0;
#X connect 28 4 35 0;
#X connect 28 5 36 0;
#X connect 28 6 37 0;
#X connect 29 0 25 0;
#X connect 30 0 25 1;
#X connect 32 0 38 0;
#X connect 33 0 38 0;
#X connect 34 0 38 0;
#X connect 35 0 38 0;
#X connect 36 0 38 0;
#X connect 37 0 38 0;
#X connect 38 0 39 0;
#X connect 39 0 40 0;
#X connect 40 0 41 0;
#X connect 40 0 41 1;
#X connect 42 0 40 1;
#X connect 44 0 45 1;
#X connect 45 0 46 0;
#X connect 46 0 47 0;
#X connect 47 0 48 0;
#X connect 48 0 50 0;
#X connect 48 1 45 1;
#X connect 48 1 54 0;
#X connect 49 0 44 0;
#X connect 49 0 52 0;
#X connect 50 0 45 0;
#X connect 51 0 47 1;
#X connect 52 0 51 0;
#X connect 53 0 51 0;
#X connect 54 0 55 0;
#X connect 54 0 56 0;
#X connect 55 0 57 0;
#X connect 57 0 53 0;
