#N canvas 733 30 624 686 12;
#X msg 30 69 440;
#X msg 83 69 500;
#X obj 30 117 osc~;
#X obj 33 197 *~;
#X msg 72 161 0.5;
#X msg 120 160 1;
#X obj 69 17 bng 15 250 50 0 empty empty empty 17 7 0 10 -262144 -1
-1;
#X obj 116 17 bng 15 250 50 0 empty empty empty 17 7 0 10 -262144 -1
-1;
#X obj 34 254 dac~;
#X text 28 281 Two frequency & volume;
#X floatatom 315 26 5 0 0 0 - - -;
#X obj 404 82 * 600;
#X obj 307 125 print a;
#X obj 255 126 osc~;
#X obj 254 171 *~ 0.5;
#X obj 403 126 osc~;
#X obj 455 127 print b;
#X obj 255 230 dac~;
#X obj 275 78 * 400;
#X text 252 262 An interval;
#X obj 33 363 random 800;
#X obj 36 407 + 200;
#X floatatom 39 440 5 0 0 0 - - -;
#X obj 40 476 osc~;
#X obj 40 515 *~ 0.7;
#X obj 41 553 dac~;
#X obj 37 338 bng 15 250 50 0 empty empty empty 17 7 0 10 -262144 -1
-1;
#X text 35 591 Random melody;
#X obj 174 416 div;
#X obj 173 374 + 0.5;
#X floatatom 175 454 5 0 0 0 - - -;
#X floatatom 172 335 5 0 0 0 - - -;
#X text 177 491 Rounding;
#X obj 313 335 random;
#X obj 315 381 trigger bang float bang float;
#X floatatom 364 301 5 0 0 0 - - -;
#X obj 312 479 f;
#X obj 390 419 f;
#X obj 391 450 ==;
#X obj 312 540 sel 0;
#X obj 390 549 sel 1;
#X obj 310 588 f;
#X floatatom 309 619 5 0 0 0 - - -;
#X obj 390 622 print;
#X obj 313 299 bng 15 250 50 0 empty empty empty 17 7 0 10 -262144
-1 -1;
#X connect 0 0 2 0;
#X connect 1 0 2 0;
#X connect 2 0 3 0;
#X connect 3 0 8 0;
#X connect 3 0 8 1;
#X connect 4 0 3 1;
#X connect 5 0 3 1;
#X connect 6 0 4 0;
#X connect 6 0 0 0;
#X connect 7 0 5 0;
#X connect 7 0 1 0;
#X connect 10 0 11 0;
#X connect 10 0 18 0;
#X connect 11 0 15 0;
#X connect 11 0 16 0;
#X connect 13 0 14 0;
#X connect 14 0 17 0;
#X connect 14 0 17 1;
#X connect 15 0 14 0;
#X connect 18 0 12 0;
#X connect 18 0 13 0;
#X connect 20 0 21 0;
#X connect 21 0 22 0;
#X connect 22 0 23 0;
#X connect 23 0 24 0;
#X connect 24 0 25 0;
#X connect 24 0 25 1;
#X connect 26 0 20 0;
#X connect 28 0 30 0;
#X connect 29 0 28 0;
#X connect 31 0 29 0;
#X connect 33 0 34 0;
#X connect 34 0 36 0;
#X connect 34 1 37 1;
#X connect 34 2 37 0;
#X connect 34 3 38 1;
#X connect 34 3 41 1;
#X connect 35 0 33 1;
#X connect 35 0 37 1;
#X connect 36 0 40 0;
#X connect 36 0 39 0;
#X connect 37 0 38 0;
#X connect 38 0 36 1;
#X connect 39 0 41 0;
#X connect 40 0 33 0;
#X connect 41 0 42 0;
#X connect 41 0 43 0;
#X connect 44 0 33 0;
