#N canvas 869 65 450 558 12;
#X obj 52 83 +, f 4;
#X floatatom 25 28 5 0 0 0 - - -;
#X floatatom 82 27 5 0 0 0 - - -;
#X floatatom 54 138 5 0 0 0 - - -;
#X obj 143 75 * 3;
#X obj 201 75 * 4;
#X msg 168 31 3;
#X floatatom 144 135 5 0 0 0 - - -;
#X floatatom 202 134 5 0 0 0 - - -;
#X obj 283 134 * 3;
#X obj 341 134 * 4;
#X msg 279 88 3;
#X msg 337 89 5;
#X obj 306 15 bng 15 250 50 0 empty empty empty 17 7 0 10 -262144 -1
-1;
#X obj 293 49 trigger bang bang;
#X obj 284 174 +;
#X floatatom 282 213 5 0 0 0 - - -;
#X obj 345 178 print right;
#X obj 35 316 expr ($f1*(5-2))/$f2;
#X floatatom 31 275 5 0 0 0 - - -;
#X floatatom 138 276 5 0 0 0 - - -;
#X floatatom 35 371 5 0 0 0 - - -;
#X obj 50 197 bng 15 250 50 0 empty empty empty 17 7 0 10 -262144 -1
-1;
#X obj 37 231 trigger bang bang;
#X obj 285 295 moses 10;
#X floatatom 284 258 5 0 0 0 - - -;
#X floatatom 276 342 5 0 0 0 - - -;
#X floatatom 338 340 5 0 0 0 - - -;
#X floatatom 126 377 5 0 0 0 - - -;
#X obj 125 418 sel 5;
#X obj 124 457 bng 15 250 50 0 empty empty empty 17 7 0 10 -262144
-1 -1;
#X floatatom 167 457 5 0 0 0 - - -;
#X obj 291 422 f;
#X floatatom 318 388 5 0 0 0 - - -;
#X floatatom 293 484 5 0 0 0 - - -;
#X obj 277 388 bng 15 250 50 0 empty empty empty 17 7 0 10 -262144
-1 -1;
#X obj 294 451 + 1;
#X connect 0 0 3 0;
#X connect 1 0 0 0;
#X connect 2 0 0 1;
#X connect 4 0 7 0;
#X connect 5 0 8 0;
#X connect 6 0 4 0;
#X connect 6 0 5 0;
#X connect 9 0 15 0;
#X connect 10 0 15 1;
#X connect 10 0 17 0;
#X connect 11 0 9 0;
#X connect 12 0 10 0;
#X connect 13 0 14 0;
#X connect 14 0 11 0;
#X connect 14 1 12 0;
#X connect 15 0 16 0;
#X connect 18 0 21 0;
#X connect 19 0 18 0;
#X connect 20 0 18 1;
#X connect 22 0 23 0;
#X connect 23 0 19 0;
#X connect 23 1 20 0;
#X connect 24 0 26 0;
#X connect 24 1 27 0;
#X connect 25 0 24 0;
#X connect 28 0 29 0;
#X connect 29 0 30 0;
#X connect 29 1 31 0;
#X connect 32 0 36 0;
#X connect 33 0 32 1;
#X connect 35 0 32 0;
#X connect 36 0 34 0;
#X connect 36 0 32 1;
