#N canvas 454 40 829 576 12;
#X obj 23 39 t b b;
#X msg 23 77 start;
#X msg 75 77 open test.wav;
#X obj 23 117 writesf~;
#X obj 23 11 bng 15 250 50 0 empty empty empty 17 7 0 10 -262144 -1
-1;
#X text 21 151 Messages;
#X msg 231 18 hello;
#X msg 284 19 43;
#X obj 231 58 pack s f;
#X obj 231 99 print;
#X text 304 51 number/"trigger": f symbol: s;
#X text 230 130 Lists;
#X obj 27 231 pack f s;
#X msg 24 192 43;
#X msg 78 191 symbol hello;
#X obj 28 267 unpack f s;
#X obj 5 316 print left;
#X obj 95 317 print right;
#X text 3 354 Right symbol must be labeled;
#X msg 241 196 1 2;
#X msg 241 238 number \$1 \$2;
#X obj 241 283 print;
#X text 224 317 Messages with variables;
#X floatatom 417 175 5 0 0 0 - - -;
#X msg 417 203 set \$1;
#X msg 417 232 10;
#X text 416 286 Messages: Set;
#X obj 22 429 makefilename hello%d;
#X msg 22 397 45;
#X obj 22 465 print;
#X text 11 497 Makefilename;
#X obj 255 413 openpanel;
#X obj 255 439 print;
#X obj 252 383 bng 15 250 50 0 empty empty empty 17 7 0 10 -262144
-1 -1;
#X text 243 471 Openpanel;
#X obj 517 94 route bang float symbol list;
#X msg 528 23 89;
#X msg 581 22 symbol dieter;
#X msg 693 24 list hello 43 now;
#X msg 722 62 unspecified;
#X obj 488 25 bng 15 250 50 0 empty empty empty 17 7 0 10 -262144 -1
-1;
#X obj 476 144 print a;
#X obj 546 144 print b;
#X obj 614 144 print c;
#X obj 679 145 print d;
#X obj 744 146 print e;
#X text 599 181 Route;
#X floatatom 571 234 5 0 0 0 - - -;
#X obj 572 271 spigot;
#X floatatom 571 308 5 0 0 0 - - -;
#X msg 619 247 1;
#X text 567 339 Spigot;
#X floatatom 398 416 5 0 0 0 - - -;
#X obj 396 381 tgl 15 0 empty empty empty 17 7 0 10 -262144 -1 -1 0
1;
#X text 396 448 Toggle;
#X connect 0 0 1 0;
#X connect 0 1 2 0;
#X connect 1 0 3 0;
#X connect 2 0 3 0;
#X connect 4 0 0 0;
#X connect 6 0 8 0;
#X connect 7 0 8 1;
#X connect 8 0 9 0;
#X connect 12 0 15 0;
#X connect 13 0 12 0;
#X connect 14 0 12 1;
#X connect 15 0 16 0;
#X connect 15 1 17 0;
#X connect 19 0 20 0;
#X connect 20 0 21 0;
#X connect 23 0 24 0;
#X connect 24 0 25 0;
#X connect 27 0 29 0;
#X connect 28 0 27 0;
#X connect 31 0 32 0;
#X connect 33 0 31 0;
#X connect 35 0 41 0;
#X connect 35 1 42 0;
#X connect 35 2 43 0;
#X connect 35 3 44 0;
#X connect 35 4 45 0;
#X connect 36 0 35 0;
#X connect 37 0 35 0;
#X connect 38 0 35 0;
#X connect 39 0 35 0;
#X connect 40 0 35 0;
#X connect 47 0 48 0;
#X connect 48 0 49 0;
#X connect 50 0 48 1;
#X connect 53 0 52 0;
