#N canvas 547 24 773 686 12;
#X obj 29 32 metro 100;
#X obj 31 66 bng 15 250 50 0 empty empty empty 17 7 0 10 -262144 -1
-1;
#X obj 30 92 random 1000;
#X floatatom 30 128 5 0 0 0 - - -;
#X obj 31 159 osc~;
#X obj 32 192 *~;
#X obj 31 225 dac~;
#X obj 70 183 tgl 15 0 empty empty empty 17 7 0 10 -262144 -1 -1 0
1;
#X obj 24 6 tgl 15 0 empty empty empty 17 7 0 10 -262144 -1 -1 0 1
;
#X text 16 253 Automatic random melody;
#X obj 19 480 line;
#X floatatom 18 517 5 0 0 0 - - -;
#X obj 20 552 osc~;
#X obj 22 589 *~;
#X obj 23 624 dac~;
#X obj 55 579 tgl 15 0 empty empty empty 17 7 0 10 -262144 -1 -1 0
1;
#X msg 19 449 440 \, 880 500;
#X text 8 651 Glissando;
#X obj 226 55 metro 500;
#X obj 226 85 bng 15 250 50 0 empty empty empty 17 7 0 10 -262144 -1
-1;
#X obj 225 109 random 1000;
#X floatatom 225 138 5 0 0 0 - - -;
#X msg 226 164 \$1 500;
#X obj 225 195 line;
#X obj 227 225 osc~;
#X obj 229 274 *~;
#X obj 263 251 tgl 15 0 empty empty empty 17 7 0 10 -262144 -1 -1 0
1;
#X obj 229 310 dac~;
#X obj 223 28 tgl 15 0 empty empty empty 17 7 0 10 -262144 -1 -1 0
1;
#X text 203 338 Glissando melody;
#X obj 34 334 metro 500;
#X obj 94 297 random 1000;
#X obj 34 300 tgl 15 0 empty empty empty 17 7 0 10 -262144 -1 -1 0
1;
#X obj 34 372 bng 15 250 50 0 empty empty empty 17 7 0 10 -262144 -1
-1;
#X text 17 401 Irregular random rhythms;
#X obj 217 425 metro 500;
#X obj 279 386 random 1000;
#X obj 219 474 random 1000;
#X obj 327 474 del 500;
#X obj 218 512 osc~;
#X obj 222 560 *~;
#X obj 326 516 random 1000;
#X obj 333 560 osc~;
#X obj 331 604 *~;
#X obj 219 455 bng 15 250 50 0 empty empty empty 17 7 0 10 -262144
-1 -1;
#X obj 218 394 tgl 15 0 empty empty empty 17 7 0 10 -262144 -1 -1 0
1;
#X obj 262 640 *~ 0.4;
#X obj 264 689 dac~;
#X obj 249 535 tgl 15 0 empty empty empty 17 7 0 10 -262144 -1 -1 0
1;
#X obj 363 587 tgl 15 0 empty empty empty 17 7 0 10 -262144 -1 -1 0
1;
#X obj 296 499 bng 15 250 50 0 empty empty empty 17 7 0 10 -262144
-1 -1;
#X text 257 724 Canons;
#X obj 364 43 metro 500;
#X obj 366 99 random 1000;
#X floatatom 370 136 5 0 0 0 - - -;
#X obj 371 173 osc~;
#X obj 453 28 random 1000;
#X obj 370 220 *~;
#X obj 411 197 tgl 15 0 empty empty empty 17 7 0 10 -262144 -1 -1 1
1;
#X obj 419 281 *~ 0.4;
#X obj 484 144 pipe 500;
#X floatatom 482 172 5 0 0 0 - - -;
#X obj 485 201 osc~;
#X obj 483 242 *~;
#X obj 519 217 tgl 15 0 empty empty empty 17 7 0 10 -262144 -1 -1 1
1;
#X obj 364 19 tgl 15 0 empty empty empty 17 7 0 10 -262144 -1 -1 0
1;
#X obj 417 324 *~;
#X obj 562 219 metro 500;
#X obj 562 269 f;
#X obj 562 300 + 1;
#X floatatom 558 337 5 0 0 0 - - -;
#X obj 616 188 random 3000;
#X obj 563 245 bng 15 250 50 0 empty empty empty 17 7 0 10 -262144
-1 -1;
#X obj 562 193 tgl 15 0 empty empty empty 17 7 0 10 -262144 -1 -1 0
1;
#X msg 609 251 -1;
#X obj 624 313 sel 1;
#X obj 365 75 bng 15 250 50 0 empty empty empty 17 7 0 10 -262144 -1
-1;
#X obj 413 356 dac~;
#X text 487 390 Rests;
#X obj 792 136 metro 500;
#X obj 852 96 random 1000;
#X obj 792 196 random 1000;
#X floatatom 794 228 5 0 0 0 - - -;
#X obj 792 110 tgl 15 0 empty empty empty 17 7 0 10 -262144 -1 -1 0
1;
#X obj 794 169 bng 15 250 50 0 empty empty empty 17 7 0 10 -262144
-1 -1;
#X obj 795 261 osc~;
#X obj 794 310 *~;
#X obj 812 286 tgl 15 0 empty empty empty 17 7 0 10 -262144 -1 -1 0
1;
#X obj 899 226 pipe 500;
#X floatatom 900 260 5 0 0 0 - - -;
#X obj 900 285 osc~;
#X obj 899 343 *~;
#X obj 919 317 tgl 15 0 empty empty empty 17 7 0 10 -262144 -1 -1 0
1;
#X obj 787 369 *~ 0.4;
#X obj 830 452 metro 500;
#X obj 828 424 tgl 15 0 empty empty empty 17 7 0 10 -262144 -1 -1 0
1;
#X obj 880 412 random 3000;
#X obj 831 483 bng 15 250 50 0 empty empty empty 17 7 0 10 -262144
-1 -1;
#X obj 830 507 f;
#X obj 829 537 + 1;
#X floatatom 829 563 5 0 0 0 - - -;
#X obj 829 588 pack f f;
#X obj 829 640 line;
#X obj 829 666 sig~;
#X msg 876 482 -1;
#X obj 920 545 sel 1;
#X obj 773 573 *~;
#X obj 771 622 dac~;
#X msg 829 614 \$1 \$2;
#X text 622 418 Crescendo/Descrescendo;
#X obj 517 539 metro;
#X obj 513 510 tgl 15 0 empty empty empty 17 7 0 10 -262144 -1 -1 0
1;
#X floatatom 565 439 5 0 0 0 - - -;
#X floatatom 565 490 5 0 0 0 - - -;
#X obj 565 464 expr 1000/($f1/60);
#X obj 592 571 bng 15 250 50 0 empty empty empty 17 7 0 10 -262144
-1 -1;
#X obj 592 596 del 50;
#X obj 516 590 osc~ 3000;
#X obj 515 664 *~;
#X obj 515 699 dac~;
#X msg 591 635 0;
#X msg 635 634 1;
#X text 585 680 Metronome;
#X connect 0 0 1 0;
#X connect 1 0 2 0;
#X connect 2 0 3 0;
#X connect 3 0 4 0;
#X connect 4 0 5 0;
#X connect 5 0 6 0;
#X connect 5 0 6 1;
#X connect 7 0 5 1;
#X connect 8 0 0 0;
#X connect 10 0 11 0;
#X connect 11 0 12 0;
#X connect 12 0 13 0;
#X connect 13 0 14 0;
#X connect 13 0 14 1;
#X connect 15 0 13 1;
#X connect 16 0 10 0;
#X connect 18 0 19 0;
#X connect 19 0 20 0;
#X connect 20 0 21 0;
#X connect 21 0 22 0;
#X connect 22 0 23 0;
#X connect 23 0 24 0;
#X connect 24 0 25 0;
#X connect 25 0 27 0;
#X connect 25 0 27 1;
#X connect 26 0 25 1;
#X connect 28 0 18 0;
#X connect 30 0 31 0;
#X connect 30 0 33 0;
#X connect 31 0 30 1;
#X connect 32 0 30 0;
#X connect 35 0 36 0;
#X connect 35 0 44 0;
#X connect 37 0 39 0;
#X connect 38 0 50 0;
#X connect 39 0 40 0;
#X connect 40 0 46 0;
#X connect 41 0 42 0;
#X connect 42 0 43 0;
#X connect 43 0 46 0;
#X connect 44 0 38 0;
#X connect 44 0 37 0;
#X connect 45 0 35 0;
#X connect 46 0 47 0;
#X connect 46 0 47 1;
#X connect 48 0 40 1;
#X connect 49 0 43 1;
#X connect 50 0 41 0;
#X connect 52 0 76 0;
#X connect 52 0 56 0;
#X connect 53 0 54 0;
#X connect 53 0 60 0;
#X connect 54 0 55 0;
#X connect 55 0 57 0;
#X connect 57 0 59 0;
#X connect 58 0 57 1;
#X connect 59 0 66 0;
#X connect 60 0 61 0;
#X connect 61 0 62 0;
#X connect 62 0 63 0;
#X connect 63 0 59 0;
#X connect 64 0 63 1;
#X connect 65 0 52 0;
#X connect 66 0 77 0;
#X connect 66 0 77 1;
#X connect 67 0 72 0;
#X connect 67 0 71 0;
#X connect 68 0 69 0;
#X connect 69 0 68 1;
#X connect 69 0 75 0;
#X connect 69 0 70 0;
#X connect 70 0 66 1;
#X connect 71 0 67 1;
#X connect 72 0 68 0;
#X connect 73 0 67 0;
#X connect 74 0 68 1;
#X connect 75 0 74 0;
#X connect 76 0 53 0;
#X connect 79 0 80 0;
#X connect 79 0 84 0;
#X connect 80 0 79 1;
#X connect 81 0 82 0;
#X connect 81 0 88 0;
#X connect 82 0 85 0;
#X connect 83 0 79 0;
#X connect 84 0 81 0;
#X connect 85 0 86 0;
#X connect 86 0 93 0;
#X connect 87 0 86 1;
#X connect 88 0 89 0;
#X connect 89 0 90 0;
#X connect 90 0 91 0;
#X connect 91 0 93 0;
#X connect 92 0 91 1;
#X connect 93 0 106 0;
#X connect 94 0 97 0;
#X connect 94 0 96 0;
#X connect 95 0 94 0;
#X connect 96 0 94 1;
#X connect 96 0 101 1;
#X connect 97 0 98 0;
#X connect 98 0 99 0;
#X connect 99 0 100 0;
#X connect 99 0 105 0;
#X connect 99 0 98 1;
#X connect 100 0 101 0;
#X connect 101 0 108 0;
#X connect 102 0 103 0;
#X connect 103 0 106 1;
#X connect 104 0 98 1;
#X connect 105 0 104 0;
#X connect 106 0 107 0;
#X connect 106 0 107 1;
#X connect 108 0 102 0;
#X connect 110 0 115 0;
#X connect 111 0 110 0;
#X connect 112 0 114 0;
#X connect 113 0 110 1;
#X connect 114 0 113 0;
#X connect 115 0 116 0;
#X connect 115 0 121 0;
#X connect 116 0 120 0;
#X connect 117 0 118 0;
#X connect 118 0 119 0;
#X connect 118 0 119 1;
#X connect 120 0 118 1;
#X connect 121 0 118 1;
