#N canvas 818 218 450 300 12;
#X obj 60 72 noise~;
#X obj 60 111 *~;
#X obj 63 160 dac~;
#X floatatom 139 64 5 0 0 0 - - -;
#X obj 140 138 snapshot~;
#X floatatom 140 164 5 0 0 0 - - -;
#X obj 200 95 bng 15 250 50 0 empty empty empty 17 7 0 10 -262144 -1
-1;
#X text 93 200 White noise;
#X obj 292 23 noise~;
#X obj 288 100 bp~;
#X floatatom 322 55 5 0 0 0 - - -;
#X floatatom 366 86 5 0 0 0 - - -;
#X obj 290 136 *~;
#X obj 289 191 *~;
#X obj 289 217 dac~;
#X obj 324 168 tgl 15 0 empty empty empty 17 7 0 10 -262144 -1 -1 0
1;
#X floatatom 336 119 5 0 0 0 - - -;
#X text 320 246 Filters;
#X connect 0 0 1 0;
#X connect 0 0 4 0;
#X connect 1 0 2 0;
#X connect 1 0 2 1;
#X connect 3 0 1 1;
#X connect 4 0 5 0;
#X connect 6 0 4 0;
#X connect 8 0 9 0;
#X connect 9 0 12 0;
#X connect 10 0 9 1;
#X connect 11 0 9 2;
#X connect 12 0 13 0;
#X connect 13 0 14 0;
#X connect 15 0 13 1;
#X connect 16 0 12 1;
