#N canvas 659 30 557 686 12;
#X obj 22 28 vsl 15 128 100 30000 0 0 empty empty empty 0 -9 0 10 -262144
-1 -1 0 1;
#X obj 70 148 t b f;
#X floatatom 112 192 5 0 0 0 - - -;
#X obj 214 61 vsl 15 80 -36 36 0 0 empty empty empty 0 -9 0 10 -262144
-1 -1 0 1;
#X floatatom 214 149 5 0 0 0 - - -;
#X obj 262 158 t b f;
#X obj 112 221 expr (pow(2 \, ($f2/12)) - 1) * (44100/$f1);
#X obj 322 42 adc~;
#X obj 322 69 delwrite~ b1 5000;
#X floatatom 98 254 5 0 0 0 - - -;
#X obj 83 289 phasor~;
#X obj 82 362 *~ -1;
#X obj 82 387 +~ 1;
#X obj 83 447 *~;
#X obj 109 484 vd~ b1;
#X obj 109 526 *~;
#X obj 172 615 *~;
#X obj 172 641 dac~;
#X floatatom 190 579 5 0 0 0 - - -;
#X obj 166 250 / 44.1;
#X floatatom 166 276 5 0 0 0 - - -;
#X obj 135 388 sig~;
#X obj 135 414 samphold~;
#X obj 277 403 cos~;
#X obj 217 399 sig~ 1;
#X obj 217 425 -~;
#X obj 217 451 *~ 0.5;
#X obj 368 328 +~ 0.5;
#X obj 341 384 *~ -1;
#X obj 341 410 +~ -1;
#X obj 341 493 *~;
#X obj 373 442 sig~;
#X obj 373 468 samphold~;
#X obj 368 354 wrap~;
#X obj 366 580 *~;
#X obj 366 529 vd~ b1;
#X obj 451 502 sig~ 1;
#X obj 451 528 -~;
#X obj 451 554 *~ 0.5;
#X obj 504 483 cos~;
#X text 277 265 Live granular synthesis;
#X connect 0 0 1 0;
#X connect 1 0 4 0;
#X connect 1 1 2 0;
#X connect 2 0 6 0;
#X connect 2 0 19 0;
#X connect 3 0 4 0;
#X connect 4 0 5 0;
#X connect 5 0 2 0;
#X connect 5 1 6 1;
#X connect 6 0 9 0;
#X connect 7 0 8 0;
#X connect 7 1 8 0;
#X connect 9 0 10 0;
#X connect 10 0 11 0;
#X connect 10 0 22 1;
#X connect 10 0 23 0;
#X connect 10 0 27 0;
#X connect 11 0 12 0;
#X connect 12 0 13 0;
#X connect 13 0 14 0;
#X connect 14 0 15 0;
#X connect 15 0 16 0;
#X connect 16 0 17 0;
#X connect 16 0 17 1;
#X connect 18 0 16 1;
#X connect 19 0 20 0;
#X connect 20 0 21 0;
#X connect 20 0 31 0;
#X connect 21 0 22 0;
#X connect 22 0 13 1;
#X connect 23 0 25 0;
#X connect 24 0 25 0;
#X connect 25 0 26 0;
#X connect 26 0 15 1;
#X connect 27 0 33 0;
#X connect 28 0 29 0;
#X connect 29 0 30 0;
#X connect 30 0 35 0;
#X connect 31 0 32 0;
#X connect 32 0 30 1;
#X connect 33 0 28 0;
#X connect 33 0 32 1;
#X connect 33 0 39 0;
#X connect 34 0 16 0;
#X connect 35 0 34 0;
#X connect 36 0 37 0;
#X connect 37 0 38 0;
#X connect 38 0 34 1;
#X connect 39 0 37 1;
