#N canvas 695 84 591 536 12;
#X msg 94 50 40;
#X obj 184 132 line;
#X msg 191 53 70 13000;
#X msg 273 53 50 10000;
#X msg 359 55 80 3000;
#X msg 441 55 100 8000;
#X obj 260 133 unpack f f;
#X floatatom 184 158 5 0 0 0 - - -;
#X obj 184 183 mtof;
#X obj 184 229 sig~;
#X obj 185 297 osc~;
#X obj 185 356 *~;
#X obj 185 382 dac~;
#X obj 326 171 t b f;
#X obj 324 217 del;
#X obj 366 211 - 1000;
#X msg 304 255 1 1000;
#X msg 396 255 0 1000;
#X obj 303 302 line~;
#X text 267 375 Glissandi;
#X connect 0 0 1 0;
#X connect 1 0 7 0;
#X connect 2 0 1 0;
#X connect 2 0 6 0;
#X connect 3 0 6 0;
#X connect 3 0 1 0;
#X connect 4 0 1 0;
#X connect 4 0 6 0;
#X connect 5 0 1 0;
#X connect 5 0 6 0;
#X connect 6 1 13 0;
#X connect 7 0 8 0;
#X connect 8 0 9 0;
#X connect 9 0 10 0;
#X connect 10 0 11 0;
#X connect 11 0 12 0;
#X connect 11 0 12 1;
#X connect 13 0 14 0;
#X connect 13 0 16 0;
#X connect 13 1 15 0;
#X connect 14 0 17 0;
#X connect 15 0 14 1;
#X connect 16 0 18 0;
#X connect 17 0 18 0;
#X connect 18 0 11 1;
