#N canvas 354 30 933 686 12;
#X obj 57 26 osc~ 440;
#X obj 58 84 tabwrite~ array1;
#X obj 91 57 bng 15 250 50 0 empty empty empty 17 7 0 10 -262144 -1
-1;
#X obj 58 178 tabwrite~ array1;
#X obj 91 151 bng 15 250 50 0 empty empty empty 17 7 0 10 -262144 -1
-1;
#X obj 41 113 phasor~ 440;
#X obj 78 227 phasor~ 440;
#X obj 78 383 *~;
#X obj 95 424 *~ 0.7;
#X obj 95 455 dac~;
#X obj 101 361 tgl 15 0 empty empty empty 17 7 0 10 -262144 -1 -1 0
1;
#X obj 167 227 phasor~ 440;
#X obj 167 253 *~ 2;
#X obj 167 279 -~ 1;
#X obj 134 380 *~;
#X obj 162 360 tgl 15 0 empty empty empty 17 7 0 10 -262144 -1 -1 0
1;
#X obj 191 309 tabwrite~ array1;
#X obj 215 284 bng 15 250 50 0 empty empty empty 17 7 0 10 -262144
-1 -1;
#N canvas 0 50 450 250 (subpatch) 0;
#X array array1 100 float 3;
#A 0 0 0 0 0 0 0 0 0 0.293493 0 0 0 0 0 0 0 0 0 0 0 0 0 0 0 0 0 0 0
0 0 0 0 0 0 0 0 0 0 0 0 0 0 0 0 0 0 0 0 0 0 0 0 0 0 0 0 0 0 0 0 0 0
0 0 0 0 0 0 0 0 0 0 0 0 0 0 0 0.429547 0 0 0 0 0 0 0 0 0 0 0 0 0 0
0 0 0 0 0 0 0 0;
#X coords 0 1 100 -1 200 140 1;
#X restore 222 50 graph;
#X obj 453 61 phasor~ 670;
#X obj 453 87 clip~ 0.2 0.8;
#X obj 452 161 tabwrite~ array1;
#X obj 587 135 bng 15 250 50 0 empty empty empty 17 7 0 10 -262144
-1 -1;
#X obj 587 72 tgl 15 0 empty empty empty 17 7 0 10 -262144 -1 -1 0
1;
#X obj 587 92 metro 50;
#X obj 244 245 tgl 15 0 empty empty empty 17 7 0 10 -262144 -1 -1 0
1;
#X obj 244 265 metro 50;
#X obj 127 30 tgl 15 0 empty empty empty 17 7 0 10 -262144 -1 -1 0
1;
#X obj 127 50 metro 50;
#X obj 131 130 tgl 15 0 empty empty empty 17 7 0 10 -262144 -1 -1 0
1;
#X obj 131 150 metro 50;
#X text 179 390 Strong phasor;
#X text 547 38 Other waveform;
#X floatatom 403 222 5 0 0 0 - - -;
#X obj 359 299 *~ 2;
#X obj 359 325 -~ 1;
#X obj 359 351 clip~ 0 1;
#X obj 359 273 phasor~;
#X obj 443 250 * -1;
#X obj 456 277 phasor~;
#X obj 456 303 *~ 2;
#X obj 456 329 -~ 1;
#X obj 456 355 clip~ 0 1;
#X msg 523 239 0;
#X obj 405 386 +~;
#X obj 404 419 tabwrite~ array1;
#X obj 449 390 bng 15 250 50 0 empty empty empty 17 7 0 10 -262144
-1 -1;
#X obj 352 439 *~ 0.7;
#X obj 352 465 *~;
#X obj 352 491 dac~;
#X obj 411 457 tgl 15 0 empty empty empty 17 7 0 10 -262144 -1 -1 0
1;
#X text 511 217 phase synchronization;
#X obj 540 373 tgl 15 0 empty empty empty 17 7 0 10 -262144 -1 -1 0
1;
#X obj 540 393 metro 50;
#X obj 265 198 hsl 128 15 0 1000 0 0 empty empty empty -2 -8 0 10 -262144
-1 -1 2900 1;
#X text 532 317 Triango;
#X floatatom 730 58 5 0 0 0 - - -;
#X obj 682 121 phasor~;
#X obj 734 171 +~;
#X obj 734 197 -~ 1;
#X obj 688 265 *~ 0.7;
#X obj 687 313 *~;
#X obj 687 339 dac~;
#X obj 724 286 tgl 15 0 empty empty empty 17 7 0 10 -262144 -1 -1 0
1;
#X obj 756 87 * -1;
#X obj 764 120 phasor~;
#X obj 841 54 bng 15 250 50 0 empty empty empty 17 7 0 10 -262144 -1
-1;
#X msg 814 78 0;
#X msg 855 79 0.5;
#X obj 755 247 tabwrite~ array1;
#X obj 778 216 bng 15 250 50 0 empty empty empty 17 7 0 10 -262144
-1 -1;
#X text 785 181 Square;
#X obj 836 181 tgl 15 0 empty empty empty 17 7 0 10 -262144 -1 -1 0
1;
#X obj 836 201 metro 50;
#X floatatom 653 382 5 0 0 0 - - -;
#X obj 653 421 phasor~;
#X obj 653 447 -~ 0.99;
#X obj 653 473 clip~ 0 1;
#X obj 652 499 *~ 100;
#X obj 653 571 *~ 0.7;
#X obj 653 601 *~;
#X obj 653 633 dac~;
#X obj 709 589 tgl 15 0 empty empty empty 17 7 0 10 -262144 -1 -1 0
1;
#X obj 711 535 tabwrite~ array1;
#X obj 733 504 bng 15 250 50 0 empty empty empty 17 7 0 10 -262144
-1 -1;
#X obj 733 441 tgl 15 0 empty empty empty 17 7 0 10 -262144 -1 -1 0
1;
#X obj 733 461 metro 50;
#X text 736 393 Pulse;
#X connect 0 0 1 0;
#X connect 2 0 1 0;
#X connect 4 0 3 0;
#X connect 5 0 3 0;
#X connect 6 0 7 0;
#X connect 7 0 8 0;
#X connect 8 0 9 0;
#X connect 8 0 9 1;
#X connect 10 0 7 1;
#X connect 11 0 12 0;
#X connect 12 0 13 0;
#X connect 13 0 14 0;
#X connect 13 0 16 0;
#X connect 14 0 8 0;
#X connect 15 0 14 1;
#X connect 17 0 16 0;
#X connect 19 0 20 0;
#X connect 20 0 21 0;
#X connect 22 0 21 0;
#X connect 23 0 24 0;
#X connect 24 0 22 0;
#X connect 25 0 26 0;
#X connect 26 0 17 0;
#X connect 27 0 28 0;
#X connect 28 0 2 0;
#X connect 29 0 30 0;
#X connect 30 0 4 0;
#X connect 33 0 37 0;
#X connect 33 0 38 0;
#X connect 34 0 35 0;
#X connect 35 0 36 0;
#X connect 36 0 44 0;
#X connect 37 0 34 0;
#X connect 38 0 39 0;
#X connect 39 0 40 0;
#X connect 40 0 41 0;
#X connect 41 0 42 0;
#X connect 42 0 44 1;
#X connect 43 0 37 1;
#X connect 43 0 39 1;
#X connect 44 0 45 0;
#X connect 44 0 47 0;
#X connect 46 0 45 0;
#X connect 47 0 48 0;
#X connect 48 0 49 0;
#X connect 48 0 49 1;
#X connect 50 0 48 1;
#X connect 52 0 53 0;
#X connect 53 0 46 0;
#X connect 54 0 28 1;
#X connect 54 0 26 1;
#X connect 54 0 24 1;
#X connect 54 0 53 1;
#X connect 54 0 73 1;
#X connect 54 0 86 1;
#X connect 56 0 57 0;
#X connect 56 0 64 0;
#X connect 57 0 58 0;
#X connect 58 0 59 0;
#X connect 59 0 60 0;
#X connect 59 0 69 0;
#X connect 60 0 61 0;
#X connect 61 0 62 0;
#X connect 61 0 62 1;
#X connect 63 0 61 1;
#X connect 64 0 65 0;
#X connect 65 0 58 1;
#X connect 66 0 67 0;
#X connect 66 0 68 0;
#X connect 67 0 57 1;
#X connect 68 0 65 1;
#X connect 70 0 69 0;
#X connect 72 0 73 0;
#X connect 73 0 70 0;
#X connect 74 0 75 0;
#X connect 75 0 76 0;
#X connect 76 0 77 0;
#X connect 77 0 78 0;
#X connect 78 0 79 0;
#X connect 78 0 83 0;
#X connect 79 0 80 0;
#X connect 80 0 81 0;
#X connect 80 0 81 1;
#X connect 82 0 80 1;
#X connect 84 0 83 0;
#X connect 85 0 86 0;
#X connect 86 0 84 0;
