#N canvas 684 227 450 300 12;
#X obj 34 11 adc~;
#X obj 33 61 *~;
#X obj 33 103 delwrite~ d1 100;
#X obj 66 40 tgl 15 0 empty empty empty 17 7 0 10 -262144 -1 -1 0 1
;
#X obj 104 12 osc~ 440;
#X obj 103 61 *~;
#X obj 130 39 tgl 15 0 empty empty empty 17 7 0 10 -262144 -1 -1 0
1;
#X floatatom 230 41 5 0 0 0 - - -;
#X obj 230 66 osc~;
#X obj 230 92 +~ 1;
#X obj 230 118 *~ 0.5;
#X obj 231 162 *~;
#X obj 231 188 vd~ d1;
#X obj 230 229 *~;
#X obj 229 262 dac~;
#X floatatom 271 143 5 0 0 0 - - -;
#X floatatom 268 211 5 0 0 0 - - -;
#X text 302 58 Modulator;
#X text 36 146 Live frequency modulation;
#X connect 0 0 1 0;
#X connect 0 1 1 0;
#X connect 1 0 2 0;
#X connect 3 0 1 1;
#X connect 4 0 5 0;
#X connect 5 0 2 0;
#X connect 6 0 5 1;
#X connect 7 0 8 0;
#X connect 8 0 9 0;
#X connect 9 0 10 0;
#X connect 10 0 11 0;
#X connect 11 0 12 0;
#X connect 12 0 13 0;
#X connect 13 0 14 0;
#X connect 13 0 14 1;
#X connect 15 0 11 1;
#X connect 16 0 13 1;
