#N canvas 721 30 559 686 12;
#X obj 58 4 bng 15 250 50 0 empty empty empty 17 7 0 10 -262144 -1
-1;
#X floatatom 59 248 5 0 0 0 - - -;
#X obj 58 24 openpanel;
#X obj 58 76 soundfiler;
#X obj 42 116 expr 44100 / $f1;
#X obj 60 342 *~;
#X obj 59 366 tabread4~ array1;
#X obj 59 444 *~;
#X obj 61 488 hip~ 5;
#X obj 61 514 dac~;
#X floatatom 120 402 5 0 0 0 - - -;
#X msg 120 427 \$1 20;
#X obj 120 453 line~;
#X obj 59 315 phasor~;
#X msg 58 50 read -resize \$1 array1;
#N canvas 0 50 450 250 (subpatch) 0;
#X array array1 100 float 3;
#A 0 0 0 0 0 0 0 0 0 0 0 0 0 0 0 0 0 0 0 0 0 0 0 0 0 0 0 0 0 0 0 0
0 0 0 0 0 0 0 0 0 0 0 0 0 0 0 0 0 0 0 0 0 0 0 0 0 0 0 0 0 0 0 0 0 0
0 0 0 0 0 0 0 0 0 0 0 0 0 0 0 0 0 0 0 0 0 0 0 0 0 0 0 0 0 0 0 0 0 0
0;
#X coords 0 1 100 -1 200 140 1;
#X restore 242 116 graph;
#X obj 99 212 t b f;
#X obj 58 278 *~;
#X obj 90 174 hsl 128 15 0 127 0 0 empty empty empty -2 -8 0 10 -262144
-1 -1 0 1;
#X text 99 149 playback speed;
#X text 167 399 volume;
#X text 111 486 DC offset filter;
#X text 243 324 Sampler with variable speed;
#X connect 0 0 2 0;
#X connect 1 0 17 0;
#X connect 2 0 14 0;
#X connect 3 0 4 0;
#X connect 3 0 5 1;
#X connect 4 0 1 0;
#X connect 5 0 6 0;
#X connect 6 0 7 0;
#X connect 7 0 8 0;
#X connect 8 0 9 0;
#X connect 8 0 9 1;
#X connect 10 0 11 0;
#X connect 11 0 12 0;
#X connect 12 0 7 1;
#X connect 13 0 5 0;
#X connect 14 0 3 0;
#X connect 16 0 1 0;
#X connect 16 1 17 1;
#X connect 17 0 13 0;
#X connect 18 0 16 0;
