#N canvas 703 132 450 300 12;
#X obj 147 31 adc~;
#X obj 147 161 *~;
#X obj 147 207 dac~;
#X obj 267 92 env~ 128;
#X obj 267 118 - 100;
#X obj 269 153 vu 15 120 empty empty -1 -8 0 10 -66577 -1 1 0;
#X obj 209 93 vsl 15 128 0 127 0 0 empty empty empty 0 -9 0 10 -262144
-1 -1 1600 1;
#X msg 209 229 \$1 20;
#X obj 209 255 line~;
#X text 240 37 Adc-input;
#X connect 0 0 1 0;
#X connect 0 0 3 0;
#X connect 0 1 1 0;
#X connect 0 1 3 0;
#X connect 1 0 2 0;
#X connect 1 0 2 1;
#X connect 3 0 4 0;
#X connect 4 0 5 0;
#X connect 6 0 7 0;
#X connect 7 0 8 0;
#X connect 8 0 1 1;
