#N canvas 731 30 450 686 12;
#X obj 25 43 metro 500;
#X obj 25 78 t b b;
#X obj 24 113 random 20;
#X obj 27 142 + 70;
#X floatatom 27 168 5 0 0 0 - - -;
#X obj 27 193 + 0;
#X floatatom 27 219 5 0 0 0 - - -;
#X obj 27 244 mtof;
#X obj 27 270 osc~;
#X obj 28 327 dac~;
#X obj 27 296 *~ 0.7;
#X obj 26 14 tgl 15 0 empty empty empty 17 7 0 10 -262144 -1 -1 0 1
;
#X obj 171 82 line;
#X obj 173 126 random;
#X obj 76 270 tgl 15 0 empty empty empty 17 7 0 10 -262144 -1 -1 0
1;
#X obj 197 183 print;
#X obj 175 155 / 100;
#X msg 173 50 0 \, 100 30000;
#X text 119 232 Tempered - Random;
#X floatatom 55 386 5 0 0 0 - - -;
#X obj 55 411 osc~;
#X obj 55 461 *~ 0.7;
#X obj 54 508 dac~;
#X obj 139 409 metro 50;
#X obj 141 383 tgl 15 0 empty empty empty 17 7 0 10 -262144 -1 -1 0
1;
#X obj 141 439 bng 15 250 50 0 empty empty empty 17 7 0 10 -262144
-1 -1;
#X obj 141 459 snapshot~;
#X floatatom 136 500 5 0 0 0 - - -;
#X obj 108 422 tgl 15 0 empty empty empty 17 7 0 10 -262144 -1 -1 0
1;
#X connect 0 0 1 0;
#X connect 1 0 2 0;
#X connect 1 1 13 0;
#X connect 2 0 3 0;
#X connect 3 0 4 0;
#X connect 4 0 5 0;
#X connect 5 0 6 0;
#X connect 6 0 7 0;
#X connect 7 0 8 0;
#X connect 8 0 10 0;
#X connect 10 0 9 0;
#X connect 10 0 9 1;
#X connect 11 0 0 0;
#X connect 12 0 13 1;
#X connect 13 0 16 0;
#X connect 14 0 10 1;
#X connect 16 0 5 0;
#X connect 16 0 15 0;
#X connect 17 0 12 0;
#X connect 19 0 20 0;
#X connect 20 0 21 0;
#X connect 20 0 26 0;
#X connect 21 0 22 0;
#X connect 21 0 22 1;
#X connect 23 0 25 0;
#X connect 24 0 23 0;
#X connect 25 0 26 0;
#X connect 26 0 27 0;
#X connect 28 0 21 1;
