#N canvas 641 155 450 414 12;
#X obj 231 12 loadbang;
#X floatatom 231 64 5 0 0 0 - - -;
#X obj 297 145 vd~ buffer 100;
#X obj 226 212 *~ 0.99;
#X obj 226 247 dac~;
#X floatatom 281 188 5 0 0 0 - - -;
#X obj 163 20 bng 15 250 50 0 empty empty empty 17 7 0 10 -262144 -1
-1;
#X obj 207 97 del;
#X msg 163 123 1;
#X msg 207 123 0;
#X obj 127 153 *~;
#X obj 103 97 noise~;
#X obj 128 278 delwrite~ buffer 1000;
#X text 276 63 size of the noise input;
#X text 320 189 damping factor;
#X text 132 320 Karplus-Strong algorithm;
#X connect 0 0 1 0;
#X connect 1 0 2 0;
#X connect 1 0 7 1;
#X connect 2 0 3 0;
#X connect 3 0 4 0;
#X connect 3 0 4 1;
#X connect 3 0 12 0;
#X connect 5 0 3 1;
#X connect 6 0 7 0;
#X connect 6 0 8 0;
#X connect 7 0 9 0;
#X connect 8 0 10 1;
#X connect 9 0 10 1;
#X connect 10 0 12 0;
#X connect 11 0 10 0;
