#N canvas 586 223 450 300 12;
#X obj 126 18 phasor~ 50;
#X obj 126 44 *~ 100;
#X obj 126 71 clip~ 0.75 1.25;
#X obj 126 96 cos~;
#X obj 127 173 +~;
#X obj 127 223 *~;
#X obj 128 254 dac~;
#X obj 168 130 delwrite~ buff 1000;
#X floatatom 219 179 5 0 0 0 - - -;
#X obj 219 204 sig~;
#X obj 219 230 vd~ buff;
#X floatatom 42 171 5 0 0 0 - - -;
#X text 238 73 pulse wave;
#X text 266 173 delay(ms);
#X text 244 23 Comb filter;
#X connect 0 0 1 0;
#X connect 1 0 2 0;
#X connect 2 0 3 0;
#X connect 3 0 4 0;
#X connect 3 0 7 0;
#X connect 4 0 5 0;
#X connect 5 0 6 0;
#X connect 5 0 6 1;
#X connect 8 0 9 0;
#X connect 9 0 10 0;
#X connect 10 0 4 1;
#X connect 11 0 5 1;
