#N canvas 552 30 450 686 12;
#X floatatom 164 55 5 0 0 0 - - -;
#X obj 164 94 phasor~;
#X obj 164 178 *~;
#X obj 167 298 *~;
#X obj 166 326 dac~;
#X obj 258 69 expr 500/$f1;
#X obj 258 144 sig~;
#X obj 258 170 vd~ buff;
#X floatatom 300 103 5 0 0 0 - - -;
#X obj 25 126 delwrite~ buff 100;
#X obj 239 197 +~;
#X obj 239 237 *~;
#X obj 279 219 tgl 15 0 empty empty empty 17 7 0 10 -262144 -1 -1 0
1;
#X obj 135 224 tgl 15 0 empty empty empty 17 7 0 10 -262144 -1 -1 0
1;
#X floatatom 232 282 5 0 0 0 - - -;
#X text 235 43 half of a period (in ms);
#X text 103 242 original;
#X text 301 219 octave displacement;
#X text 166 373 Octave doubler;
#X connect 0 0 1 0;
#X connect 0 0 5 0;
#X connect 1 0 2 0;
#X connect 1 0 9 0;
#X connect 1 0 10 0;
#X connect 2 0 3 0;
#X connect 3 0 4 0;
#X connect 3 0 4 1;
#X connect 5 0 6 0;
#X connect 5 0 8 0;
#X connect 6 0 7 0;
#X connect 7 0 10 1;
#X connect 10 0 11 0;
#X connect 11 0 3 0;
#X connect 12 0 11 1;
#X connect 13 0 2 1;
#X connect 14 0 3 1;
