#N canvas 496 184 614 497 12;
#X obj 63 13 adc~;
#X obj 63 39 delwrite~ buff1 10000;
#X floatatom 258 67 5 0 0 0 - - -;
#X obj 258 92 sig~;
#X obj 258 118 vd~ buff;
#X obj 258 179 *~;
#X obj 258 235 *~;
#X obj 258 261 hip~ 5;
#X obj 258 287 dac~;
#X floatatom 283 150 5 0 0 0 - - -;
#X floatatom 285 206 5 0 0 0 - - -;
#X text 240 46 loop duration;
#X text 328 205 total volume;
#X text 161 180 Reverb;
#X connect 0 0 1 0;
#X connect 0 1 1 0;
#X connect 2 0 3 0;
#X connect 3 0 4 0;
#X connect 4 0 5 0;
#X connect 5 0 6 0;
#X connect 5 0 1 0;
#X connect 6 0 7 0;
#X connect 7 0 8 0;
#X connect 7 0 8 1;
#X connect 9 0 5 1;
#X connect 10 0 6 1;
