#N canvas 641 200 450 300 12;
#X obj 134 38 adc~;
#X obj 135 86 lop~ 3000;
#X obj 135 112 lop~ 3000;
#X obj 135 138 hip~ 300;
#X obj 135 164 hip~ 300;
#X floatatom 163 189 5 0 0 0 - - -;
#X obj 135 212 *~;
#X obj 137 249 dac~;
#X text 227 159 Telephone filters;
#X connect 0 0 1 0;
#X connect 1 0 2 0;
#X connect 2 0 3 0;
#X connect 3 0 4 0;
#X connect 4 0 6 0;
#X connect 5 0 6 0;
#X connect 6 0 7 0;
#X connect 6 0 7 1;
