#N canvas 506 30 810 686 12;
#X msg 82 100 500 \, 0 500;
#X obj 82 126 line~;
#X obj 81 177 *~;
#X obj 81 352 *~;
#X obj 80 387 +~;
#X floatatom 126 211 5 0 0 0 - - -;
#X floatatom 126 262 5 0 0 0 - - -;
#X floatatom 318 210 5 0 0 0 - - -;
#X obj 126 236 expr pow(2 \, ($f1 / 12));
#X obj 101 309 expr (22.05*(1-$f1)) / $f2;
#X obj 333 309 expr 22.05*$f2*($f1-1);
#X msg 46 46 0 \, 132300 3000;
#X obj 46 72 line~;
#X obj 49 412 +~;
#X obj 50 521 dac~;
#X obj 50 495 *~ 0.8;
#X obj 49 438 tabread4~ array1;
#X obj 214 26 bng 15 250 50 0 empty empty empty 17 7 0 10 -262144 -1
-1;
#X text 216 122 Glissandi of samples;
#X text 125 186 chromatic steps;
#X text 296 185 length of glissando (ms);
#X connect 0 0 1 0;
#X connect 1 0 2 0;
#X connect 1 0 2 1;
#X connect 2 0 3 0;
#X connect 3 0 4 0;
#X connect 4 0 13 1;
#X connect 5 0 8 0;
#X connect 6 0 9 0;
#X connect 6 0 10 0;
#X connect 7 0 10 0;
#X connect 7 0 9 1;
#X connect 8 0 6 0;
#X connect 9 0 3 1;
#X connect 10 0 4 1;
#X connect 11 0 12 0;
#X connect 12 0 13 0;
#X connect 13 0 16 0;
#X connect 15 0 14 0;
#X connect 15 0 14 1;
#X connect 16 0 15 0;
#X connect 17 0 11 0;
#X connect 17 0 0 0;
