#N canvas 763 210 599 428 12;
#X obj 48 5 inlet~;
#X obj 49 51 delwrite~ comp 100;
#X obj 212 50 env~ 1024;
#X floatatom 212 76 5 0 0 0 - - -;
#X obj 212 129 bng 15 250 50 0 empty empty empty 17 7 0 10 -262144
-1 -1;
#X obj 212 101 moses;
#X obj 368 37 loadbang;
#X floatatom 368 89 5 0 0 0 - - -;
#X msg 368 63 10;
#X floatatom 493 38 5 0 0 0 - - -;
#X floatatom 244 130 5 0 0 0 - - -;
#X obj 244 155 expr (($f1 - $f3) / $f2) - $f1 + $f3;
#X msg 212 239 1;
#X floatatom 244 181 5 0 0 0 - - -;
#X obj 244 206 expr 100 + $f1;
#X floatatom 244 232 5 0 0 0 - - -;
#X obj 244 257 dbtorms;
#X floatatom 244 283 5 0 0 0 - - -;
#X msg 148 303 \$1 20;
#X msg 111 336 \$1 20;
#X obj 111 362 line~;
#X floatatom 61 135 5 0 0 0 - - -;
#X obj 61 161 delread~ comp;
#X obj 62 362 *~;
#X obj 61 390 outlet~;
#X text 99 5 signal to be limited;
#X text 28 117 forward control;
#X text 195 309 release: 20 ms;
#X text 157 339 attack: 20ms;
#X text 383 109 limit factor;
#X text 435 16 threshold / reference;
#X text 286 181 value by which the signal must be reduced;
#X text 302 246 conversion;
#X text 284 284 correction factor of the input signal's rms value;
#X connect 0 0 1 0;
#X connect 0 0 2 0;
#X connect 2 0 3 0;
#X connect 3 0 5 0;
#X connect 4 0 12 0;
#X connect 5 0 4 0;
#X connect 5 1 10 0;
#X connect 6 0 8 0;
#X connect 7 0 11 1;
#X connect 8 0 7 0;
#X connect 9 0 11 2;
#X connect 9 0 5 1;
#X connect 10 0 11 0;
#X connect 11 0 13 0;
#X connect 12 0 18 0;
#X connect 13 0 14 0;
#X connect 14 0 15 0;
#X connect 15 0 16 0;
#X connect 16 0 17 0;
#X connect 17 0 19 0;
#X connect 18 0 20 0;
#X connect 19 0 20 0;
#X connect 20 0 23 1;
#X connect 21 0 22 0;
#X connect 22 0 23 0;
#X connect 23 0 24 0;
