#N canvas 685 136 530 476 12;
#X floatatom 104 98 5 0 0 0 - - -;
#X floatatom 116 186 5 0 0 0 - - -;
#X floatatom 314 89 5 0 0 0 - - -;
#X floatatom 378 122 5 0 0 0 - - -;
#X obj 322 169 *;
#X floatatom 322 195 5 0 0 0 - - -;
#X floatatom 116 237 5 0 0 0 - - -;
#X obj 116 211 ftom;
#X obj 211 263 -;
#X obj 322 220 ftom;
#X floatatom 322 246 5 0 0 0 - - -;
#X floatatom 211 315 5 0 0 0 - - -;
#X obj 211 289 * 100;
#X text 39 71 Distance in chromatic half-steps;
#X text 308 64 Fundamental;
#X text 376 94 Distance in partials;
#X text 363 194 Frequency;
#X text 292 274 Convertion to MIDI numbers;
#X text 158 186 Frequency;
#X text 130 292 Difference;
#X text 92 365 Natual vs. equal-tempered;
#X obj 92 138 expr $f2 *pow(2 \, ($f1/12));
#X connect 0 0 21 0;
#X connect 1 0 7 0;
#X connect 2 0 4 1;
#X connect 2 0 21 1;
#X connect 3 0 4 0;
#X connect 4 0 5 0;
#X connect 5 0 9 0;
#X connect 6 0 8 0;
#X connect 7 0 6 0;
#X connect 8 0 12 0;
#X connect 9 0 10 0;
#X connect 10 0 8 1;
#X connect 12 0 11 0;
#X connect 21 0 1 0;
