#N canvas 707 164 523 539 12;
#X obj 88 13 tgl 15 0 empty empty empty 17 7 0 10 -262144 -1 -1 0 1
;
#X obj 88 33 metro 200;
#X obj 88 58 random 2000;
#X obj 88 85 + 400;
#X msg 88 111 \$1 200;
#X obj 88 137 line~;
#X obj 88 163 osc~;
#X obj 88 189 delwrite~ buff1 10000;
#X floatatom 172 225 5 0 0 0 - - -;
#X obj 172 250 sig~;
#X obj 172 276 vd~ buff1;
#X floatatom 200 301 5 0 0 0 - - -;
#X floatatom 245 227 5 0 0 0 - - -;
#X obj 245 252 sig~;
#X obj 245 278 vd~ buff1;
#X floatatom 273 303 5 0 0 0 - - -;
#X floatatom 320 228 5 0 0 0 - - -;
#X obj 320 253 sig~;
#X obj 320 279 vd~ buff1;
#X floatatom 348 304 5 0 0 0 - - -;
#X floatatom 395 230 5 0 0 0 - - -;
#X obj 395 255 sig~;
#X obj 395 281 vd~ buff1;
#X floatatom 423 306 5 0 0 0 - - -;
#X obj 173 386 *~;
#X obj 173 412 hip~ 5;
#X obj 173 438 dac~;
#X floatatom 267 388 5 0 0 0 - - -;
#X obj 41 89 print;
#X obj 171 330 *~;
#X obj 243 331 *~;
#X obj 319 332 *~;
#X obj 394 334 *~;
#X text 208 104 Texture;
#X text 299 205 loop duration;
#X connect 0 0 1 0;
#X connect 1 0 2 0;
#X connect 2 0 3 0;
#X connect 2 0 28 0;
#X connect 3 0 4 0;
#X connect 4 0 5 0;
#X connect 5 0 6 0;
#X connect 6 0 7 0;
#X connect 8 0 9 0;
#X connect 9 0 10 0;
#X connect 10 0 29 0;
#X connect 11 0 29 1;
#X connect 12 0 13 0;
#X connect 13 0 14 0;
#X connect 14 0 30 0;
#X connect 15 0 30 1;
#X connect 16 0 17 0;
#X connect 17 0 18 0;
#X connect 18 0 31 0;
#X connect 19 0 31 1;
#X connect 20 0 21 0;
#X connect 21 0 22 0;
#X connect 22 0 32 0;
#X connect 23 0 32 1;
#X connect 24 0 25 0;
#X connect 25 0 26 0;
#X connect 25 0 26 1;
#X connect 27 0 24 1;
#X connect 29 0 24 0;
#X connect 29 0 7 0;
#X connect 30 0 24 0;
#X connect 30 0 7 0;
#X connect 31 0 24 0;
#X connect 31 0 7 0;
#X connect 32 0 24 0;
#X connect 32 0 7 0;
