#N canvas 674 254 450 300 12;
#X floatatom 41 19 5 0 0 0 - - -;
#X obj 41 44 osc~;
#X obj 41 70 delwrite~ platz 3000;
#X obj 41 112 delread~ platz 2500;
#X obj 41 138 *~ 0.7;
#X obj 41 164 dac~;
#X obj 108 163 tgl 15 0 empty empty empty 17 7 0 10 -262144 -1 -1 0
1;
#X floatatom 194 115 5 0 0 0 - - -;
#X obj 194 140 sig~;
#X obj 194 166 vd~ platz;
#X obj 194 192 *~ 0.7;
#X obj 194 218 dac~;
#X obj 253 208 tgl 15 0 empty empty empty 17 7 0 10 -262144 -1 -1 0
1;
#X connect 0 0 1 0;
#X connect 1 0 2 0;
#X connect 3 0 4 0;
#X connect 4 0 5 0;
#X connect 4 0 5 1;
#X connect 6 0 4 1;
#X connect 7 0 8 0;
#X connect 8 0 9 0;
#X connect 9 0 10 0;
#X connect 10 0 11 0;
#X connect 10 0 11 1;
#X connect 12 0 10 1;
