#N canvas 516 141 1056 516 12;
#X floatatom 136 22 5 0 0 0 - - -;
#X obj 41 84 * 1;
#X floatatom 41 110 5 0 0 0 - - -;
#X obj 41 135 osc~;
#X obj 42 196 *~;
#X obj 97 101 random 100;
#X obj 97 127 / 100;
#X floatatom 97 153 5 0 0 0 - - -;
#X floatatom 183 110 5 0 0 0 - - -;
#X obj 182 139 osc~;
#X obj 184 196 *~;
#X obj 239 101 random 100;
#X obj 239 127 / 100;
#X floatatom 239 153 5 0 0 0 - - -;
#X floatatom 328 107 5 0 0 0 - - -;
#X obj 328 132 osc~;
#X obj 329 193 *~;
#X obj 384 98 random 100;
#X obj 384 124 / 100;
#X floatatom 384 150 5 0 0 0 - - -;
#X floatatom 475 114 5 0 0 0 - - -;
#X obj 475 139 osc~;
#X obj 476 200 *~;
#X obj 531 105 random 100;
#X obj 531 131 / 100;
#X floatatom 531 157 5 0 0 0 - - -;
#X floatatom 257 252 5 0 0 0 - - -;
#X obj 257 277 osc~;
#X obj 258 338 *~;
#X obj 313 243 random 100;
#X obj 313 269 / 100;
#X floatatom 313 295 5 0 0 0 - - -;
#X floatatom 422 251 5 0 0 0 - - -;
#X obj 422 276 osc~;
#X obj 423 337 *~;
#X obj 478 242 random 100;
#X obj 478 268 / 100;
#X floatatom 479 295 5 0 0 0 - - -;
#X floatatom 91 242 5 0 0 0 - - -;
#X obj 91 267 osc~;
#X obj 92 328 *~;
#X obj 147 233 random 100;
#X obj 147 259 / 100;
#X floatatom 147 285 5 0 0 0 - - -;
#X obj 670 403 bng 15 250 50 0 empty empty empty 17 7 0 10 -262144
-1 -1;
#X obj 201 398 *~;
#X floatatom 274 399 5 0 0 0 - - -;
#X obj 201 424 dac~;
#X obj 183 84 * 2;
#X obj 328 81 * 3;
#X obj 475 88 * 4;
#X obj 91 216 * 5;
#X obj 257 226 * 6;
#X obj 422 225 * 7;
#X obj 673 347 tgl 15 0 empty empty empty 17 7 0 10 -262144 -1 -1 0
1;
#X obj 670 371 metro 100;
#X text 387 392 A random klangfarbe;
#X connect 0 0 1 0;
#X connect 0 0 48 0;
#X connect 0 0 49 0;
#X connect 0 0 50 0;
#X connect 0 0 51 0;
#X connect 0 0 52 0;
#X connect 0 0 53 0;
#X connect 1 0 2 0;
#X connect 2 0 3 0;
#X connect 3 0 4 0;
#X connect 4 0 45 0;
#X connect 5 0 6 0;
#X connect 6 0 7 0;
#X connect 7 0 4 1;
#X connect 8 0 9 0;
#X connect 9 0 10 0;
#X connect 10 0 45 0;
#X connect 11 0 12 0;
#X connect 12 0 13 0;
#X connect 13 0 10 1;
#X connect 14 0 15 0;
#X connect 15 0 16 0;
#X connect 16 0 45 0;
#X connect 17 0 18 0;
#X connect 18 0 19 0;
#X connect 19 0 16 1;
#X connect 20 0 21 0;
#X connect 21 0 22 0;
#X connect 22 0 45 0;
#X connect 23 0 24 0;
#X connect 24 0 25 0;
#X connect 25 0 22 1;
#X connect 26 0 27 0;
#X connect 27 0 28 0;
#X connect 28 0 45 0;
#X connect 29 0 30 0;
#X connect 30 0 31 0;
#X connect 31 0 28 1;
#X connect 32 0 33 0;
#X connect 33 0 34 0;
#X connect 34 0 45 0;
#X connect 35 0 36 0;
#X connect 36 0 37 0;
#X connect 37 0 34 1;
#X connect 38 0 39 0;
#X connect 39 0 40 0;
#X connect 40 0 45 0;
#X connect 41 0 42 0;
#X connect 42 0 43 0;
#X connect 43 0 40 1;
#X connect 44 0 5 0;
#X connect 44 0 11 0;
#X connect 44 0 17 0;
#X connect 44 0 23 0;
#X connect 44 0 41 0;
#X connect 44 0 29 0;
#X connect 44 0 35 0;
#X connect 45 0 47 0;
#X connect 45 0 47 1;
#X connect 46 0 45 1;
#X connect 48 0 8 0;
#X connect 49 0 14 0;
#X connect 50 0 20 0;
#X connect 51 0 38 0;
#X connect 52 0 26 0;
#X connect 53 0 32 0;
#X connect 54 0 55 0;
#X connect 55 0 44 0;
