#N canvas 703 194 818 423 12;
#X obj 114 45 bng 15 250 50 0 empty empty empty 17 7 0 10 -262144 -1
-1;
#X obj 44 59 noise~;
#X obj 44 139 bp~ 0 50;
#X obj 93 84 random 10000;
#X floatatom 93 114 5 0 0 0 - - -;
#X obj 253 45 bng 15 250 50 0 empty empty empty 17 7 0 10 -262144 -1
-1;
#X obj 183 59 noise~;
#X obj 183 139 bp~ 0 50;
#X obj 232 84 random 10000;
#X floatatom 232 114 5 0 0 0 - - -;
#X obj 400 43 bng 15 250 50 0 empty empty empty 17 7 0 10 -262144 -1
-1;
#X obj 330 57 noise~;
#X obj 330 138 bp~ 0 50;
#X obj 379 82 random 10000;
#X floatatom 379 112 5 0 0 0 - - -;
#X obj 548 43 bng 15 250 50 0 empty empty empty 17 7 0 10 -262144 -1
-1;
#X obj 478 57 noise~;
#X obj 478 137 bp~ 0 50;
#X obj 527 82 random 10000;
#X floatatom 527 112 5 0 0 0 - - -;
#X obj 115 175 bng 15 250 50 0 empty empty empty 17 7 0 10 -262144
-1 -1;
#X obj 45 189 noise~;
#X obj 45 269 bp~ 0 50;
#X obj 94 214 random 10000;
#X floatatom 94 244 5 0 0 0 - - -;
#X obj 251 177 bng 15 250 50 0 empty empty empty 17 7 0 10 -262144
-1 -1;
#X obj 189 200 noise~;
#X obj 189 280 bp~ 0 50;
#X obj 238 225 random 10000;
#X floatatom 238 255 5 0 0 0 - - -;
#X obj 404 191 bng 15 250 50 0 empty empty empty 17 7 0 10 -262144
-1 -1;
#X obj 334 205 noise~;
#X obj 334 285 bp~ 0 50;
#X obj 383 230 random 10000;
#X floatatom 383 260 5 0 0 0 - - -;
#X obj 549 195 bng 15 250 50 0 empty empty empty 17 7 0 10 -262144
-1 -1;
#X obj 479 209 noise~;
#X obj 479 289 bp~ 0 50;
#X obj 528 234 random 10000;
#X floatatom 528 264 5 0 0 0 - - -;
#X obj 312 8 bng 15 250 50 0 empty empty empty 17 7 0 10 -262144 -1
-1;
#X obj 296 363 dac~;
#X obj 296 337 *~;
#X floatatom 349 352 5 0 0 0 - - -;
#X text 8 160 comment;
#X text 133 347 Filter colors;
#X connect 0 0 3 0;
#X connect 1 0 2 0;
#X connect 2 0 42 0;
#X connect 3 0 4 0;
#X connect 4 0 2 1;
#X connect 5 0 8 0;
#X connect 6 0 7 0;
#X connect 7 0 42 0;
#X connect 8 0 9 0;
#X connect 9 0 7 1;
#X connect 10 0 13 0;
#X connect 11 0 12 0;
#X connect 12 0 42 0;
#X connect 13 0 14 0;
#X connect 14 0 12 1;
#X connect 15 0 18 0;
#X connect 16 0 17 0;
#X connect 17 0 42 0;
#X connect 18 0 19 0;
#X connect 19 0 17 1;
#X connect 20 0 23 0;
#X connect 21 0 22 0;
#X connect 22 0 42 0;
#X connect 23 0 24 0;
#X connect 24 0 22 1;
#X connect 25 0 28 0;
#X connect 26 0 27 0;
#X connect 27 0 42 0;
#X connect 28 0 29 0;
#X connect 29 0 27 1;
#X connect 30 0 33 0;
#X connect 31 0 32 0;
#X connect 32 0 42 0;
#X connect 33 0 34 0;
#X connect 34 0 32 1;
#X connect 35 0 38 0;
#X connect 36 0 37 0;
#X connect 37 0 42 0;
#X connect 38 0 39 0;
#X connect 39 0 37 1;
#X connect 40 0 0 0;
#X connect 40 0 5 0;
#X connect 40 0 10 0;
#X connect 40 0 15 0;
#X connect 40 0 20 0;
#X connect 40 0 25 0;
#X connect 40 0 30 0;
#X connect 40 0 35 0;
#X connect 42 0 41 0;
#X connect 42 0 41 1;
#X connect 43 0 42 1;
